<?xml version="1.0" encoding="UTF-8"?>
<svg width="52px" height="24px" viewBox="0 0 52 24" version="1.1" xmlns="http://www.w3.org/2000/svg" xmlns:xlink="http://www.w3.org/1999/xlink">
    <title>logo--header</title>
    <g id="Page-1" stroke="none" stroke-width="1" fill="none" fill-rule="evenodd">
        <g id="Homepage" transform="translate(-40.000000, -10.000000)" fill="#FFFFFF" fill-rule="nonzero">
            <g id="logo--header" transform="translate(40.000000, 10.000000)">
                <polygon id="Path" points="49.0401284 10.8282098 51.4285714 7.86618445 51.4285714 7.71428571 47.576244 7.71428571 44.5714286 11.283906 46.5746388 13.7142857"></polygon>
                <polygon id="Path" points="49.0401284 20.85 46.5746388 18 44.5714286 20.4 47.576244 24 51.4285714 24 51.4285714 23.775"></polygon>
                <polygon id="Path" points="41.3008289 11.8083067 38.1062896 7.82108626 37.0414432 7.82108626 37.0414432 7.82108626 33.5426621 7.82108626 29.207216 17.5591054 25.0238908 7.82108626 22.5899561 7.82108626 18.4066309 17.5591054 14.0711848 7.82108626 9.50755729 7.82108626 3.42272062 13.7252396 3.42272062 0 0 0 0 23.9233227 3.42272062 23.9233227 3.42272062 18.3258786 5.93271575 15.8722045 9.43149683 23.9233227 12.8542175 23.9233227 8.29058996 13.2651757 11.4851292 9.73801917 17.7981472 23.9233227 19.091175 23.9233227 23.8069235 12.9584665 28.5987323 23.9233227 29.8917601 23.9233227 35.9765968 10.1980831 40.6162847 15.8722045 34.0750853 24 38.0302292 24 41.3008289 19.9361022 44.5714286 15.8722045"></polygon>
            </g>
        </g>
    </g>
</svg>